<svg xmlns="http://www.w3.org/2000/svg" height="512" viewBox="0 0 479.058 479.058" width="512"><path d="M434.146 59.882H44.912C20.146 59.882 0 80.028 0 104.794v269.47c0 24.766 20.146 44.912 44.912 44.912h389.234c24.766 0 44.912-20.146 44.912-44.912v-269.47c0-24.766-20.146-44.912-44.912-44.912zm0 29.94c2.034 0 3.97.422 5.738 1.16L239.53 264.63 39.173 90.982c1.77-.736 3.704-1.16 5.738-1.16zm0 299.41H44.912c-8.26 0-14.97-6.7-14.97-14.97V122.615l199.778 173.14c2.822 2.44 6.316 3.655 9.8 3.655a14.95 14.95 0 0 0 9.81-3.655l199.778-173.14v251.65c-.001 8.26-6.71 14.97-14.97 14.97z"/></svg>